<svg xmlns="http://www.w3.org/2000/svg" xmlns:xlink="http://www.w3.org/1999/xlink" width="800" zoomAndPan="magnify" viewBox="0 0 600 149.999998" height="200" preserveAspectRatio="xMidYMid meet" version="1.2"><defs/><g id="1d47869058"><g style="fill:#ffffff;fill-opacity:1;"><g transform="translate(5.466802, 85.874997)"><path style="stroke:none" d="M 32.265625 0 L 2.734375 0 L 2.734375 -24.53125 L 30.921875 -24.53125 L 30.921875 -18.453125 L 13.015625 -18.453125 L 13.015625 -14.609375 L 28.140625 -14.609375 L 28.140625 -9.890625 L 13.015625 -9.890625 L 13.015625 -6.0625 L 32.265625 -6.0625 Z M 32.265625 0 "/></g></g><g style="fill:#ffffff;fill-opacity:1;"><g transform="translate(39.092105, 85.874997)"><path style="stroke:none" d="M 35.34375 0 L 24.921875 0 L 17.8125 -7.515625 L 10.6875 0 L 0.25 0 L 13.015625 -12.546875 L 0.25 -24.5 L 10.6875 -24.5 L 17.8125 -17.484375 L 24.921875 -24.5 L 35.34375 -24.5 L 22.578125 -12.546875 Z M 35.34375 0 "/></g></g><g style="fill:#ffffff;fill-opacity:1;"><g transform="translate(74.682301, 85.874997)"><path style="stroke:none" d="M 23.546875 0 L 14 0 L 0.25 -24.5 L 10.6875 -24.5 L 18.78125 -6.984375 L 26.859375 -24.5 L 37.296875 -24.5 Z M 23.546875 0 "/></g></g><g style="fill:#ffffff;fill-opacity:1;"><g transform="translate(109.144568, 85.874997)"><path style="stroke:none" d="M 18.546875 0.53125 C 12.484375 0.53125 8.019531 -0.71875 5.15625 -3.21875 C 2.632812 -5.425781 1.375 -8.4375 1.375 -12.25 C 1.375 -16.0625 2.632812 -19.070312 5.15625 -21.28125 C 8.019531 -23.769531 12.484375 -25.015625 18.546875 -25.015625 C 24.609375 -25.015625 29.066406 -23.769531 31.921875 -21.28125 C 34.453125 -19.070312 35.71875 -16.0625 35.71875 -12.25 C 35.71875 -8.4375 34.453125 -5.425781 31.921875 -3.21875 C 29.066406 -0.71875 24.609375 0.53125 18.546875 0.53125 Z M 18.546875 -6.046875 C 21.023438 -6.046875 22.847656 -6.757812 24.015625 -8.1875 C 24.941406 -9.332031 25.40625 -10.6875 25.40625 -12.25 C 25.40625 -13.8125 24.941406 -15.160156 24.015625 -16.296875 C 22.847656 -17.734375 21.023438 -18.453125 18.546875 -18.453125 C 16.054688 -18.453125 14.226562 -17.734375 13.0625 -16.296875 C 12.125 -15.160156 11.65625 -13.8125 11.65625 -12.25 C 11.65625 -10.6875 12.125 -9.332031 13.0625 -8.1875 C 14.226562 -6.757812 16.054688 -6.046875 18.546875 -6.046875 Z M 18.546875 -6.046875 "/></g></g><g style="fill:#ffffff;fill-opacity:1;"><g transform="translate(146.221249, 85.874997)"><path style="stroke:none" d="M 36.21875 0 L 26.484375 0 C 26.046875 -0.613281 25.734375 -1.398438 25.546875 -2.359375 C 25.390625 -3.097656 25.148438 -3.820312 24.828125 -4.53125 C 24.515625 -5.25 23.96875 -5.84375 23.1875 -6.3125 C 22.40625 -6.789062 21.242188 -7.046875 19.703125 -7.078125 L 13.015625 -7.078125 L 13.015625 0 L 2.734375 0 L 2.734375 -24.53125 L 19.46875 -24.53125 C 23.46875 -24.53125 26.691406 -24.226562 29.140625 -23.625 C 31.597656 -23.03125 33.390625 -22.09375 34.515625 -20.8125 C 35.648438 -19.53125 36.21875 -17.859375 36.21875 -15.796875 C 36.21875 -14.066406 35.828125 -12.613281 35.046875 -11.4375 C 34.265625 -10.269531 33.03125 -9.347656 31.34375 -8.671875 C 32.96875 -7.992188 34.019531 -7.1875 34.5 -6.25 C 34.988281 -5.3125 35.289062 -4.273438 35.40625 -3.140625 C 35.519531 -2.140625 35.789062 -1.09375 36.21875 0 Z M 13.015625 -13.125 L 18.90625 -13.140625 C 20.539062 -13.140625 21.832031 -13.210938 22.78125 -13.359375 C 23.726562 -13.515625 24.425781 -13.71875 24.875 -13.96875 C 25.320312 -14.226562 25.609375 -14.515625 25.734375 -14.828125 C 25.859375 -15.140625 25.921875 -15.460938 25.921875 -15.796875 C 25.921875 -16.117188 25.859375 -16.441406 25.734375 -16.765625 C 25.609375 -17.085938 25.320312 -17.375 24.875 -17.625 C 24.425781 -17.882812 23.726562 -18.085938 22.78125 -18.234375 C 21.832031 -18.378906 20.539062 -18.453125 18.90625 -18.453125 L 13.015625 -18.453125 Z M 13.015625 -13.125 "/></g></g><g style="fill:#ffffff;fill-opacity:1;"><g transform="translate(183.793424, 85.874997)"><path style="stroke:none" d="M 41.1875 0 L 30.765625 0 L 28.453125 -4.015625 L 12.984375 -4.015625 L 10.6875 0 L 0.25 0 L 15.9375 -24.5 L 25.5 -24.5 Z M 24.984375 -10.078125 L 20.734375 -17.515625 L 16.453125 -10.078125 Z M 24.984375 -10.078125 "/></g></g><g style="fill:#ffffff;fill-opacity:1;"><g transform="translate(225.227042, 85.874997)"><path style="stroke:none" d="M 31.359375 0 L 2.734375 0 L 2.734375 -24.53125 L 13.015625 -24.53125 L 13.015625 -6.0625 L 31.359375 -6.0625 Z M 31.359375 0 "/></g></g><g style="fill:#ffffff;fill-opacity:1;"><g transform="translate(257.263356, 85.874997)"><path style="stroke:none" d=""/></g></g><g style="fill:#ffffff;fill-opacity:1;"><g transform="translate(265.943058, 85.874997)"><path style="stroke:none" d="M 20.921875 0 L 10.625 0 L 10.625 -18.453125 L 1.03125 -18.453125 L 1.03125 -24.53125 L 30.515625 -24.53125 L 30.515625 -18.453125 L 20.921875 -18.453125 Z M 20.921875 0 "/></g></g><g style="fill:#ffffff;fill-opacity:1;"><g transform="translate(297.483843, 85.874997)"><path style="stroke:none" d="M 36.21875 0 L 26.484375 0 C 26.046875 -0.613281 25.734375 -1.398438 25.546875 -2.359375 C 25.390625 -3.097656 25.148438 -3.820312 24.828125 -4.53125 C 24.515625 -5.25 23.96875 -5.84375 23.1875 -6.3125 C 22.40625 -6.789062 21.242188 -7.046875 19.703125 -7.078125 L 13.015625 -7.078125 L 13.015625 0 L 2.734375 0 L 2.734375 -24.53125 L 19.46875 -24.53125 C 23.46875 -24.53125 26.691406 -24.226562 29.140625 -23.625 C 31.597656 -23.03125 33.390625 -22.09375 34.515625 -20.8125 C 35.648438 -19.53125 36.21875 -17.859375 36.21875 -15.796875 C 36.21875 -14.066406 35.828125 -12.613281 35.046875 -11.4375 C 34.265625 -10.269531 33.03125 -9.347656 31.34375 -8.671875 C 32.96875 -7.992188 34.019531 -7.1875 34.5 -6.25 C 34.988281 -5.3125 35.289062 -4.273438 35.40625 -3.140625 C 35.519531 -2.140625 35.789062 -1.09375 36.21875 0 Z M 13.015625 -13.125 L 18.90625 -13.140625 C 20.539062 -13.140625 21.832031 -13.210938 22.78125 -13.359375 C 23.726562 -13.515625 24.425781 -13.71875 24.875 -13.96875 C 25.320312 -14.226562 25.609375 -14.515625 25.734375 -14.828125 C 25.859375 -15.140625 25.921875 -15.460938 25.921875 -15.796875 C 25.921875 -16.117188 25.859375 -16.441406 25.734375 -16.765625 C 25.609375 -17.085938 25.320312 -17.375 24.875 -17.625 C 24.425781 -17.882812 23.726562 -18.085938 22.78125 -18.234375 C 21.832031 -18.378906 20.539062 -18.453125 18.90625 -18.453125 L 13.015625 -18.453125 Z M 13.015625 -13.125 "/></g></g><g style="fill:#ffffff;fill-opacity:1;"><g transform="translate(335.05603, 85.874997)"><path style="stroke:none" d="M 41.1875 0 L 30.765625 0 L 28.453125 -4.015625 L 12.984375 -4.015625 L 10.6875 0 L 0.25 0 L 15.9375 -24.5 L 25.5 -24.5 Z M 24.984375 -10.078125 L 20.734375 -17.515625 L 16.453125 -10.078125 Z M 24.984375 -10.078125 "/></g></g><g style="fill:#ffffff;fill-opacity:1;"><g transform="translate(376.489636, 85.874997)"><path style="stroke:none" d="M 39.125 0 L 26.875 0 L 13.015625 -16.59375 L 13.015625 0 L 2.734375 0 L 2.734375 -24.53125 L 14.96875 -24.53125 L 28.828125 -8.015625 L 28.828125 -24.53125 L 39.125 -24.53125 Z M 39.125 0 "/></g></g><g style="fill:#ffffff;fill-opacity:1;"><g transform="translate(418.333353, 85.874997)"><path style="stroke:none" d="M 16.203125 0.53125 C 12.890625 0.53125 10.21875 0.175781 8.1875 -0.53125 C 6.15625 -1.25 4.609375 -2.226562 3.546875 -3.46875 C 2.492188 -4.71875 1.785156 -6.160156 1.421875 -7.796875 L 12.34375 -7.796875 C 13.144531 -6.628906 14.429688 -6.046875 16.203125 -6.046875 C 17.960938 -6.046875 19.25 -6.628906 20.0625 -7.796875 C 20.132812 -7.910156 20.171875 -8.007812 20.171875 -8.09375 C 20.171875 -8.40625 19.757812 -8.640625 18.9375 -8.796875 C 18.125 -8.953125 16.910156 -9.066406 15.296875 -9.140625 C 13.253906 -9.234375 11.113281 -9.453125 8.875 -9.796875 C 3.875 -10.566406 1.375 -12.578125 1.375 -15.828125 C 1.375 -16.097656 1.390625 -16.390625 1.421875 -16.703125 C 1.785156 -18.328125 2.492188 -19.765625 3.546875 -21.015625 C 4.609375 -22.265625 6.15625 -23.242188 8.1875 -23.953125 C 10.21875 -24.660156 12.890625 -25.015625 16.203125 -25.015625 C 19.515625 -25.015625 22.1875 -24.660156 24.21875 -23.953125 C 26.25 -23.242188 27.789062 -22.265625 28.84375 -21.015625 C 29.90625 -19.765625 30.617188 -18.328125 30.984375 -16.703125 L 20.0625 -16.703125 C 19.25 -17.859375 17.960938 -18.4375 16.203125 -18.4375 C 14.429688 -18.4375 13.144531 -17.859375 12.34375 -16.703125 C 12.28125 -16.609375 12.25 -16.519531 12.25 -16.4375 C 12.25 -16.164062 12.640625 -15.960938 13.421875 -15.828125 C 14.203125 -15.703125 15.351562 -15.59375 16.875 -15.5 C 18.394531 -15.40625 20.015625 -15.253906 21.734375 -15.046875 C 23.453125 -14.847656 25.0625 -14.492188 26.5625 -13.984375 C 28.0625 -13.484375 29.234375 -12.734375 30.078125 -11.734375 C 30.734375 -10.972656 31.0625 -10.003906 31.0625 -8.828125 C 31.0625 -8.503906 31.035156 -8.160156 30.984375 -7.796875 C 30.617188 -6.160156 29.90625 -4.71875 28.84375 -3.46875 C 27.789062 -2.226562 26.25 -1.25 24.21875 -0.53125 C 22.1875 0.175781 19.515625 0.53125 16.203125 0.53125 Z M 16.203125 0.53125 "/></g></g><g style="fill:#ffffff;fill-opacity:1;"><g transform="translate(450.762612, 85.874997)"><path style="stroke:none" d="M 13.015625 0 L 2.734375 0 L 2.734375 -24.53125 L 19.46875 -24.53125 C 23.46875 -24.53125 26.691406 -24.226562 29.140625 -23.625 C 31.597656 -23.03125 33.390625 -22.09375 34.515625 -20.8125 C 35.648438 -19.53125 36.21875 -17.859375 36.21875 -15.796875 C 36.21875 -13.742188 35.648438 -12.078125 34.515625 -10.796875 C 33.390625 -9.515625 31.597656 -8.570312 29.140625 -7.96875 C 26.691406 -7.375 23.46875 -7.078125 19.46875 -7.078125 L 13.015625 -7.078125 Z M 13.015625 -13.125 L 18.90625 -13.140625 C 20.539062 -13.140625 21.832031 -13.203125 22.78125 -13.328125 C 23.726562 -13.460938 24.425781 -13.648438 24.875 -13.890625 C 25.320312 -14.128906 25.609375 -14.410156 25.734375 -14.734375 C 25.859375 -15.066406 25.921875 -15.421875 25.921875 -15.796875 C 25.921875 -16.179688 25.859375 -16.535156 25.734375 -16.859375 C 25.609375 -17.179688 25.320312 -17.460938 24.875 -17.703125 C 24.425781 -17.941406 23.726562 -18.125 22.78125 -18.25 C 21.832031 -18.382812 20.539062 -18.453125 18.90625 -18.453125 L 13.015625 -18.453125 Z M 13.015625 -13.125 "/></g></g><g style="fill:#ffffff;fill-opacity:1;"><g transform="translate(488.334799, 85.874997)"><path style="stroke:none" d="M 18.546875 0.53125 C 12.484375 0.53125 8.019531 -0.71875 5.15625 -3.21875 C 2.632812 -5.425781 1.375 -8.4375 1.375 -12.25 C 1.375 -16.0625 2.632812 -19.070312 5.15625 -21.28125 C 8.019531 -23.769531 12.484375 -25.015625 18.546875 -25.015625 C 24.609375 -25.015625 29.066406 -23.769531 31.921875 -21.28125 C 34.453125 -19.070312 35.71875 -16.0625 35.71875 -12.25 C 35.71875 -8.4375 34.453125 -5.425781 31.921875 -3.21875 C 29.066406 -0.71875 24.609375 0.53125 18.546875 0.53125 Z M 18.546875 -6.046875 C 21.023438 -6.046875 22.847656 -6.757812 24.015625 -8.1875 C 24.941406 -9.332031 25.40625 -10.6875 25.40625 -12.25 C 25.40625 -13.8125 24.941406 -15.160156 24.015625 -16.296875 C 22.847656 -17.734375 21.023438 -18.453125 18.546875 -18.453125 C 16.054688 -18.453125 14.226562 -17.734375 13.0625 -16.296875 C 12.125 -15.160156 11.65625 -13.8125 11.65625 -12.25 C 11.65625 -10.6875 12.125 -9.332031 13.0625 -8.1875 C 14.226562 -6.757812 16.054688 -6.046875 18.546875 -6.046875 Z M 18.546875 -6.046875 "/></g></g><g style="fill:#ffffff;fill-opacity:1;"><g transform="translate(525.411457, 85.874997)"><path style="stroke:none" d="M 36.21875 0 L 26.484375 0 C 26.046875 -0.613281 25.734375 -1.398438 25.546875 -2.359375 C 25.390625 -3.097656 25.148438 -3.820312 24.828125 -4.53125 C 24.515625 -5.25 23.96875 -5.84375 23.1875 -6.3125 C 22.40625 -6.789062 21.242188 -7.046875 19.703125 -7.078125 L 13.015625 -7.078125 L 13.015625 0 L 2.734375 0 L 2.734375 -24.53125 L 19.46875 -24.53125 C 23.46875 -24.53125 26.691406 -24.226562 29.140625 -23.625 C 31.597656 -23.03125 33.390625 -22.09375 34.515625 -20.8125 C 35.648438 -19.53125 36.21875 -17.859375 36.21875 -15.796875 C 36.21875 -14.066406 35.828125 -12.613281 35.046875 -11.4375 C 34.265625 -10.269531 33.03125 -9.347656 31.34375 -8.671875 C 32.96875 -7.992188 34.019531 -7.1875 34.5 -6.25 C 34.988281 -5.3125 35.289062 -4.273438 35.40625 -3.140625 C 35.519531 -2.140625 35.789062 -1.09375 36.21875 0 Z M 13.015625 -13.125 L 18.90625 -13.140625 C 20.539062 -13.140625 21.832031 -13.210938 22.78125 -13.359375 C 23.726562 -13.515625 24.425781 -13.71875 24.875 -13.96875 C 25.320312 -14.226562 25.609375 -14.515625 25.734375 -14.828125 C 25.859375 -15.140625 25.921875 -15.460938 25.921875 -15.796875 C 25.921875 -16.117188 25.859375 -16.441406 25.734375 -16.765625 C 25.609375 -17.085938 25.320312 -17.375 24.875 -17.625 C 24.425781 -17.882812 23.726562 -18.085938 22.78125 -18.234375 C 21.832031 -18.378906 20.539062 -18.453125 18.90625 -18.453125 L 13.015625 -18.453125 Z M 13.015625 -13.125 "/></g></g><g style="fill:#ffffff;fill-opacity:1;"><g transform="translate(562.983644, 85.874997)"><path style="stroke:none" d="M 20.921875 0 L 10.625 0 L 10.625 -18.453125 L 1.03125 -18.453125 L 1.03125 -24.53125 L 30.515625 -24.53125 L 30.515625 -18.453125 L 20.921875 -18.453125 Z M 20.921875 0 "/></g></g></g></svg>