<svg xmlns="http://www.w3.org/2000/svg" xmlns:xlink="http://www.w3.org/1999/xlink" width="300" zoomAndPan="magnify" viewBox="0 0 224.87999 225" height="300" preserveAspectRatio="xMidYMid meet" version="1.2"><defs/><g id="80d7ee4b8e"><g style="fill:#000000;fill-opacity:1;"><g transform="translate(26.136442, 119.996005)"><path style="stroke:none" d="M 22.109375 0 L 1.875 0 L 1.875 -16.8125 L 21.1875 -16.8125 L 21.1875 -12.640625 L 8.921875 -12.640625 L 8.921875 -10.015625 L 19.28125 -10.015625 L 19.28125 -6.78125 L 8.921875 -6.78125 L 8.921875 -4.15625 L 22.109375 -4.15625 Z M 22.109375 0 "/></g><g transform="translate(49.18664, 119.996005)"><path style="stroke:none" d="M 24.21875 0 L 17.078125 0 L 12.203125 -5.15625 L 7.3125 0 L 0.171875 0 L 8.921875 -8.59375 L 0.171875 -16.796875 L 7.3125 -16.796875 L 12.203125 -11.984375 L 17.078125 -16.796875 L 24.21875 -16.796875 L 15.46875 -8.59375 Z M 24.21875 0 "/></g><g transform="translate(73.583775, 119.996005)"><path style="stroke:none" d="M 16.140625 0 L 9.59375 0 L 0.171875 -16.796875 L 7.3125 -16.796875 L 12.875 -4.796875 L 18.40625 -16.796875 L 25.546875 -16.796875 Z M 16.140625 0 "/></g></g><g style="fill:#000000;fill-opacity:1;"><g transform="translate(97.207885, 119.996005)"><path style="stroke:none" d="M 12.703125 0.359375 C 8.546875 0.359375 5.488281 -0.492188 3.53125 -2.203125 C 1.800781 -3.710938 0.9375 -5.773438 0.9375 -8.390625 C 0.9375 -11.003906 1.800781 -13.066406 3.53125 -14.578125 C 5.488281 -16.285156 8.546875 -17.140625 12.703125 -17.140625 C 16.859375 -17.140625 19.914062 -16.285156 21.875 -14.578125 C 23.601562 -13.066406 24.46875 -11.003906 24.46875 -8.390625 C 24.46875 -5.773438 23.601562 -3.710938 21.875 -2.203125 C 19.914062 -0.492188 16.859375 0.359375 12.703125 0.359375 Z M 12.703125 -4.140625 C 14.410156 -4.140625 15.660156 -4.628906 16.453125 -5.609375 C 17.097656 -6.398438 17.421875 -7.328125 17.421875 -8.390625 C 17.421875 -9.460938 17.097656 -10.390625 16.453125 -11.171875 C 15.660156 -12.148438 14.410156 -12.640625 12.703125 -12.640625 C 11.003906 -12.640625 9.753906 -12.148438 8.953125 -11.171875 C 8.304688 -10.390625 7.984375 -9.460938 7.984375 -8.390625 C 7.984375 -7.328125 8.304688 -6.398438 8.953125 -5.609375 C 9.753906 -4.628906 11.003906 -4.140625 12.703125 -4.140625 Z M 12.703125 -4.140625 "/></g><g transform="translate(122.624008, 119.996005)"><path style="stroke:none" d="M 24.8125 0 L 18.15625 0 C 17.851562 -0.414062 17.640625 -0.953125 17.515625 -1.609375 C 17.398438 -2.117188 17.234375 -2.617188 17.015625 -3.109375 C 16.796875 -3.597656 16.414062 -4.003906 15.875 -4.328125 C 15.34375 -4.648438 14.550781 -4.820312 13.5 -4.84375 L 8.921875 -4.84375 L 8.921875 0 L 1.875 0 L 1.875 -16.8125 L 13.34375 -16.8125 C 16.082031 -16.8125 18.289062 -16.601562 19.96875 -16.1875 C 21.65625 -15.78125 22.882812 -15.132812 23.65625 -14.25 C 24.425781 -13.375 24.8125 -12.234375 24.8125 -10.828125 C 24.8125 -9.640625 24.546875 -8.644531 24.015625 -7.84375 C 23.484375 -7.039062 22.640625 -6.40625 21.484375 -5.9375 C 22.597656 -5.476562 23.316406 -4.925781 23.640625 -4.28125 C 23.972656 -3.632812 24.179688 -2.925781 24.265625 -2.15625 C 24.335938 -1.46875 24.519531 -0.75 24.8125 0 Z M 8.921875 -9 L 12.953125 -9 C 14.078125 -9 14.960938 -9.050781 15.609375 -9.15625 C 16.253906 -9.257812 16.734375 -9.398438 17.046875 -9.578125 C 17.359375 -9.753906 17.554688 -9.945312 17.640625 -10.15625 C 17.722656 -10.375 17.765625 -10.597656 17.765625 -10.828125 C 17.765625 -11.046875 17.722656 -11.265625 17.640625 -11.484375 C 17.554688 -11.703125 17.359375 -11.898438 17.046875 -12.078125 C 16.734375 -12.253906 16.253906 -12.390625 15.609375 -12.484375 C 14.960938 -12.585938 14.078125 -12.640625 12.953125 -12.640625 L 8.921875 -12.640625 Z M 8.921875 -9 "/></g><g transform="translate(148.379793, 119.996005)"><path style="stroke:none" d="M 28.21875 0 L 21.078125 0 L 19.5 -2.75 L 8.90625 -2.75 L 7.3125 0 L 0.171875 0 L 10.921875 -16.796875 L 17.46875 -16.796875 Z M 17.125 -6.90625 L 14.203125 -12 L 11.28125 -6.90625 Z M 17.125 -6.90625 "/></g><g transform="translate(176.782603, 119.996005)"><path style="stroke:none" d="M 21.484375 0 L 1.875 0 L 1.875 -16.8125 L 8.921875 -16.8125 L 8.921875 -4.15625 L 21.484375 -4.15625 Z M 21.484375 0 "/></g></g></g></svg>